<mxfile host="app.diagrams.net" agent="Mozilla/5.0 (Windows NT 10.0; Win64; x64) AppleWebKit/537.36 (KHTML, like Gecko) Chrome/139.0.0.0 Safari/537.36 Edg/139.0.0.0" version="28.1.1">
  <diagram name="Page-1" id="LNFBuLJfu0tE5Cwpah_o">
    <mxGraphModel dx="1034" dy="604" grid="1" gridSize="10" guides="1" tooltips="1" connect="1" arrows="1" fold="1" page="1" pageScale="1" pageWidth="850" pageHeight="1100" math="0" shadow="0">
      <root>
        <mxCell id="0" />
        <mxCell id="1" parent="0" />
        <mxCell id="oFzCjvjJp6ycxrGNlya_-1" value="STUDENT INFORMATION SYSTEM" style="rounded=1;whiteSpace=wrap;html=1;" vertex="1" parent="1">
          <mxGeometry x="260" y="20" width="320" height="60" as="geometry" />
        </mxCell>
        <mxCell id="oFzCjvjJp6ycxrGNlya_-2" value="ADMIN" style="rounded=1;whiteSpace=wrap;html=1;" vertex="1" parent="1">
          <mxGeometry x="30" y="135" width="120" height="60" as="geometry" />
        </mxCell>
        <mxCell id="oFzCjvjJp6ycxrGNlya_-3" value="MANAGE ATTENDANCE DETAILS" style="rounded=1;whiteSpace=wrap;html=1;" vertex="1" parent="1">
          <mxGeometry x="570" y="170" width="180" height="60" as="geometry" />
        </mxCell>
        <mxCell id="oFzCjvjJp6ycxrGNlya_-4" value="MANAGE TIME TABLE" style="rounded=1;whiteSpace=wrap;html=1;" vertex="1" parent="1">
          <mxGeometry x="570" y="90" width="180" height="60" as="geometry" />
        </mxCell>
        <mxCell id="oFzCjvjJp6ycxrGNlya_-5" value="MANAGE STUDENT DETAILS" style="rounded=1;whiteSpace=wrap;html=1;" vertex="1" parent="1">
          <mxGeometry x="570" y="330" width="180" height="60" as="geometry" />
        </mxCell>
        <mxCell id="oFzCjvjJp6ycxrGNlya_-6" value="MANAGE CLASS DETAILS" style="rounded=1;whiteSpace=wrap;html=1;" vertex="1" parent="1">
          <mxGeometry x="570" y="250" width="180" height="60" as="geometry" />
        </mxCell>
        <mxCell id="oFzCjvjJp6ycxrGNlya_-7" value="MANAGE TEACHER PROFILE" style="rounded=1;whiteSpace=wrap;html=1;" vertex="1" parent="1">
          <mxGeometry x="570" y="480" width="180" height="60" as="geometry" />
        </mxCell>
        <mxCell id="oFzCjvjJp6ycxrGNlya_-8" value="MANAGE FEE DETAILS" style="rounded=1;whiteSpace=wrap;html=1;" vertex="1" parent="1">
          <mxGeometry x="570" y="400" width="180" height="60" as="geometry" />
        </mxCell>
        <mxCell id="oFzCjvjJp6ycxrGNlya_-9" value="LOGIN TO SYSTEM" style="ellipse;whiteSpace=wrap;html=1;" vertex="1" parent="1">
          <mxGeometry x="210" y="130" width="100" height="70" as="geometry" />
        </mxCell>
        <mxCell id="oFzCjvjJp6ycxrGNlya_-10" value="CHECK ROLES OF ACCESS" style="ellipse;whiteSpace=wrap;html=1;" vertex="1" parent="1">
          <mxGeometry x="380" y="125" width="110" height="80" as="geometry" />
        </mxCell>
        <mxCell id="oFzCjvjJp6ycxrGNlya_-11" value="MANAGE MODULES" style="ellipse;whiteSpace=wrap;html=1;" vertex="1" parent="1">
          <mxGeometry x="385" y="250" width="100" height="80" as="geometry" />
        </mxCell>
        <mxCell id="oFzCjvjJp6ycxrGNlya_-12" value="CHECK CREDINTIALS" style="ellipse;whiteSpace=wrap;html=1;" vertex="1" parent="1">
          <mxGeometry x="210" y="250" width="100" height="80" as="geometry" />
        </mxCell>
        <mxCell id="oFzCjvjJp6ycxrGNlya_-13" value="FORGET PASSWORD" style="ellipse;whiteSpace=wrap;html=1;" vertex="1" parent="1">
          <mxGeometry x="40" y="260" width="120" height="80" as="geometry" />
        </mxCell>
        <mxCell id="oFzCjvjJp6ycxrGNlya_-15" value="" style="endArrow=classic;html=1;rounded=0;" edge="1" parent="1">
          <mxGeometry width="50" height="50" relative="1" as="geometry">
            <mxPoint x="160" y="170" as="sourcePoint" />
            <mxPoint x="210" y="170" as="targetPoint" />
          </mxGeometry>
        </mxCell>
        <mxCell id="oFzCjvjJp6ycxrGNlya_-16" value="" style="endArrow=classic;html=1;rounded=0;exitX=0.952;exitY=0.19;exitDx=0;exitDy=0;exitPerimeter=0;" edge="1" parent="1" source="oFzCjvjJp6ycxrGNlya_-12" target="oFzCjvjJp6ycxrGNlya_-10">
          <mxGeometry width="50" height="50" relative="1" as="geometry">
            <mxPoint x="380" y="330" as="sourcePoint" />
            <mxPoint x="380" y="210" as="targetPoint" />
          </mxGeometry>
        </mxCell>
        <mxCell id="oFzCjvjJp6ycxrGNlya_-17" value="" style="endArrow=classic;html=1;rounded=0;" edge="1" parent="1">
          <mxGeometry width="50" height="50" relative="1" as="geometry">
            <mxPoint x="260" y="210" as="sourcePoint" />
            <mxPoint x="260" y="240" as="targetPoint" />
          </mxGeometry>
        </mxCell>
        <mxCell id="oFzCjvjJp6ycxrGNlya_-18" value="" style="endArrow=classic;html=1;rounded=0;" edge="1" parent="1">
          <mxGeometry width="50" height="50" relative="1" as="geometry">
            <mxPoint x="90" y="200" as="sourcePoint" />
            <mxPoint x="90" y="250" as="targetPoint" />
          </mxGeometry>
        </mxCell>
        <mxCell id="oFzCjvjJp6ycxrGNlya_-19" value="" style="endArrow=classic;html=1;rounded=0;" edge="1" parent="1">
          <mxGeometry width="50" height="50" relative="1" as="geometry">
            <mxPoint x="100" y="350" as="sourcePoint" />
            <mxPoint x="100" y="400" as="targetPoint" />
          </mxGeometry>
        </mxCell>
        <mxCell id="oFzCjvjJp6ycxrGNlya_-23" value="" style="endArrow=classic;html=1;rounded=0;" edge="1" parent="1">
          <mxGeometry width="50" height="50" relative="1" as="geometry">
            <mxPoint x="430" y="210" as="sourcePoint" />
            <mxPoint x="430" y="240" as="targetPoint" />
          </mxGeometry>
        </mxCell>
        <mxCell id="oFzCjvjJp6ycxrGNlya_-24" value="" style="endArrow=classic;html=1;rounded=0;entryX=0;entryY=1;entryDx=0;entryDy=0;" edge="1" parent="1" source="oFzCjvjJp6ycxrGNlya_-11" target="oFzCjvjJp6ycxrGNlya_-4">
          <mxGeometry width="50" height="50" relative="1" as="geometry">
            <mxPoint x="380" y="330" as="sourcePoint" />
            <mxPoint x="550" y="180" as="targetPoint" />
            <Array as="points">
              <mxPoint x="470" y="260" />
            </Array>
          </mxGeometry>
        </mxCell>
        <mxCell id="oFzCjvjJp6ycxrGNlya_-25" value="" style="endArrow=classic;html=1;rounded=0;" edge="1" parent="1">
          <mxGeometry width="50" height="50" relative="1" as="geometry">
            <mxPoint x="490" y="280" as="sourcePoint" />
            <mxPoint x="560" y="220" as="targetPoint" />
          </mxGeometry>
        </mxCell>
        <mxCell id="oFzCjvjJp6ycxrGNlya_-26" value="" style="endArrow=classic;html=1;rounded=0;entryX=0;entryY=0.5;entryDx=0;entryDy=0;" edge="1" parent="1" target="oFzCjvjJp6ycxrGNlya_-6">
          <mxGeometry width="50" height="50" relative="1" as="geometry">
            <mxPoint x="490" y="310" as="sourcePoint" />
            <mxPoint x="550" y="320" as="targetPoint" />
          </mxGeometry>
        </mxCell>
        <mxCell id="oFzCjvjJp6ycxrGNlya_-27" value="" style="endArrow=classic;html=1;rounded=0;exitX=1;exitY=1;exitDx=0;exitDy=0;" edge="1" parent="1" source="oFzCjvjJp6ycxrGNlya_-11">
          <mxGeometry width="50" height="50" relative="1" as="geometry">
            <mxPoint x="380" y="330" as="sourcePoint" />
            <mxPoint x="560" y="360" as="targetPoint" />
          </mxGeometry>
        </mxCell>
        <mxCell id="oFzCjvjJp6ycxrGNlya_-28" value="" style="endArrow=classic;html=1;rounded=0;exitX=0.69;exitY=0.98;exitDx=0;exitDy=0;exitPerimeter=0;entryX=0;entryY=0;entryDx=0;entryDy=0;" edge="1" parent="1" source="oFzCjvjJp6ycxrGNlya_-11" target="oFzCjvjJp6ycxrGNlya_-7">
          <mxGeometry width="50" height="50" relative="1" as="geometry">
            <mxPoint x="380" y="330" as="sourcePoint" />
            <mxPoint x="550" y="470" as="targetPoint" />
          </mxGeometry>
        </mxCell>
        <mxCell id="oFzCjvjJp6ycxrGNlya_-29" value="" style="endArrow=classic;html=1;rounded=0;exitX=0.57;exitY=1.03;exitDx=0;exitDy=0;exitPerimeter=0;entryX=0;entryY=0;entryDx=0;entryDy=0;" edge="1" parent="1" source="oFzCjvjJp6ycxrGNlya_-11" target="oFzCjvjJp6ycxrGNlya_-36">
          <mxGeometry width="50" height="50" relative="1" as="geometry">
            <mxPoint x="420" y="340" as="sourcePoint" />
            <mxPoint x="550" y="540" as="targetPoint" />
          </mxGeometry>
        </mxCell>
        <mxCell id="oFzCjvjJp6ycxrGNlya_-30" value="MANAGE SYSTEM ADIMIN" style="rounded=1;whiteSpace=wrap;html=1;" vertex="1" parent="1">
          <mxGeometry x="60" y="500" width="120" height="60" as="geometry" />
        </mxCell>
        <mxCell id="oFzCjvjJp6ycxrGNlya_-31" value="MANAGE ROLES OF USER" style="rounded=1;whiteSpace=wrap;html=1;" vertex="1" parent="1">
          <mxGeometry x="220" y="500" width="120" height="60" as="geometry" />
        </mxCell>
        <mxCell id="oFzCjvjJp6ycxrGNlya_-32" value="MANAGE USER PERMISSION" style="rounded=1;whiteSpace=wrap;html=1;" vertex="1" parent="1">
          <mxGeometry x="370" y="500" width="120" height="60" as="geometry" />
        </mxCell>
        <mxCell id="oFzCjvjJp6ycxrGNlya_-33" value="" style="endArrow=classic;html=1;rounded=0;" edge="1" parent="1" source="oFzCjvjJp6ycxrGNlya_-11">
          <mxGeometry width="50" height="50" relative="1" as="geometry">
            <mxPoint x="380" y="330" as="sourcePoint" />
            <mxPoint x="180" y="490" as="targetPoint" />
          </mxGeometry>
        </mxCell>
        <mxCell id="oFzCjvjJp6ycxrGNlya_-34" value="" style="endArrow=classic;html=1;rounded=0;entryX=0.75;entryY=0;entryDx=0;entryDy=0;" edge="1" parent="1" source="oFzCjvjJp6ycxrGNlya_-11" target="oFzCjvjJp6ycxrGNlya_-31">
          <mxGeometry width="50" height="50" relative="1" as="geometry">
            <mxPoint x="380" y="330" as="sourcePoint" />
            <mxPoint x="430" y="280" as="targetPoint" />
          </mxGeometry>
        </mxCell>
        <mxCell id="oFzCjvjJp6ycxrGNlya_-35" value="" style="endArrow=classic;html=1;rounded=0;" edge="1" parent="1">
          <mxGeometry width="50" height="50" relative="1" as="geometry">
            <mxPoint x="430" y="333" as="sourcePoint" />
            <mxPoint x="424" y="490" as="targetPoint" />
          </mxGeometry>
        </mxCell>
        <mxCell id="oFzCjvjJp6ycxrGNlya_-36" value="MANAGE REPORT" style="rounded=1;whiteSpace=wrap;html=1;" vertex="1" parent="1">
          <mxGeometry x="570" y="560" width="180" height="60" as="geometry" />
        </mxCell>
        <mxCell id="oFzCjvjJp6ycxrGNlya_-38" value="" style="endArrow=classic;html=1;rounded=0;entryX=0;entryY=0.5;entryDx=0;entryDy=0;" edge="1" parent="1" source="oFzCjvjJp6ycxrGNlya_-11" target="oFzCjvjJp6ycxrGNlya_-8">
          <mxGeometry width="50" height="50" relative="1" as="geometry">
            <mxPoint x="380" y="370" as="sourcePoint" />
            <mxPoint x="430" y="320" as="targetPoint" />
          </mxGeometry>
        </mxCell>
        <mxCell id="oFzCjvjJp6ycxrGNlya_-40" value="SEND EMAIL TO USER" style="ellipse;whiteSpace=wrap;html=1;" vertex="1" parent="1">
          <mxGeometry x="40" y="410" width="120" height="80" as="geometry" />
        </mxCell>
      </root>
    </mxGraphModel>
  </diagram>
</mxfile>
